<svg width="2222" height="711" viewBox="0 0 2222 711" fill="none" xmlns="http://www.w3.org/2000/svg">
<path d="M449.88 231.124H390.96L305.852 451.936H359.196L373.017 414.367H453.517L438.969 373.162H385.868L420.299 278.147L481.644 451.936H534.988L449.88 231.124ZM1345.33 451.936V231.124H1392.61V410.489H1485.96V451.936H1345.33ZM1618.11 451.936V231.124H1665.63V410.489H1758.98V451.936H1618.11ZM1082.97 270.633C1122.25 270.633 1154.02 302.385 1154.02 341.652C1154.02 380.918 1122.25 412.67 1082.97 412.67C1043.69 412.67 1011.93 380.918 1011.93 341.652C1011.93 302.385 1043.93 270.633 1082.97 270.633M1082.97 227.489C1019.93 227.489 968.769 278.632 968.769 341.652C968.769 404.671 1019.93 455.814 1082.97 455.814C1146.02 455.814 1197.18 404.671 1197.18 341.652C1197.18 278.632 1146.02 227.489 1082.97 227.489V227.489ZM1976.72 270.633C2016 270.633 2047.77 302.385 2047.77 341.652C2047.77 380.918 2016 412.67 1976.72 412.67C1937.44 412.67 1905.68 380.918 1905.68 341.652C1905.68 302.385 1937.44 270.633 1976.72 270.633ZM1976.72 227.489C1913.68 227.489 1862.52 278.632 1862.52 341.652C1862.52 404.671 1913.68 455.814 1976.72 455.814C2039.76 455.814 2090.93 404.671 2090.93 341.652C2090.93 278.632 2039.76 227.489 1976.72 227.489ZM775.762 231.124H672.711V451.936H719.751V375.828H775.762C815.042 375.828 846.806 342.621 846.806 303.355C846.806 264.331 815.042 231.124 775.762 231.124V231.124ZM775.762 332.683H719.751V274.269H775.762C791.037 274.269 803.646 288.085 803.646 303.355C803.646 318.625 791.037 332.683 775.762 332.683V332.683Z" fill="#232E96"/>
<path d="M632.218 518.834C628.096 518.834 624.459 520.773 622.277 523.924C622.277 523.924 611.608 536.044 606.032 541.861C581.784 566.099 553.658 585.005 522.379 598.336C489.888 612.152 455.457 618.939 419.814 618.939C384.17 618.939 349.739 611.91 317.248 598.336C285.969 585.005 257.6 566.099 233.596 541.861C209.348 517.622 190.436 489.506 177.1 458.238C163.279 425.759 156.49 391.34 156.49 355.71C156.49 320.079 163.521 285.661 177.1 253.181C190.193 221.914 209.106 193.555 233.353 169.559C257.6 145.321 285.727 126.415 317.006 113.083C349.497 99.2675 383.928 92.4808 419.571 92.4808C455.214 92.4808 489.645 99.5099 522.136 113.083C544.929 122.779 566.024 135.383 585.179 150.895C584.209 153.804 583.482 157.197 583.482 160.591C583.482 177.073 596.818 190.404 613.306 190.404C629.794 190.404 643.13 177.073 643.13 160.591C643.13 144.109 629.794 130.777 613.306 130.777C609.184 130.777 605.304 131.505 601.91 133.201C552.203 92.4808 488.918 68 419.571 68C260.752 68 132 196.706 132 355.71C132 514.714 260.752 643.42 419.814 643.42C508.801 643.42 588.089 603.184 640.947 539.679C643.13 537.498 644.584 534.347 644.584 531.196C644.342 524.409 638.765 518.834 632.218 518.834Z" fill="#232E96"/>
</svg>
