<svg width="119" height="37" viewBox="0 0 119 37" fill="none" xmlns="http://www.w3.org/2000/svg">
<g clip-path="url(#clip0_6_57)">
<path d="M52.5001 22.3001C52.8001 24.3001 54.5001 25.7001 57.3001 25.7001C58.8001 25.7001 60.7001 25.2001 61.6001 24.2001L64.1001 26.7001C62.4001 28.4001 59.7001 29.3001 57.2001 29.3001C51.7001 29.3001 48.4001 25.9001 48.4001 20.9001C48.4001 16.1001 51.7001 12.6001 56.9001 12.6001C62.2001 12.6001 65.6001 15.9001 65.0001 22.4001H52.5001V22.3001ZM61.2001 19.1001C60.9001 17.1001 59.3001 16.0001 57.1001 16.0001C55.0001 16.0001 53.2001 17.0001 52.6001 19.1001H61.2001Z" fill="#00AFD1"/>
<path d="M81.7001 26.8002C79.9001 28.6002 77.9001 29.3002 75.6001 29.3002C71.0001 29.3002 67.1001 26.5002 67.1001 20.9002C67.1001 15.3002 71.0001 12.5002 75.6001 12.5002C77.9001 12.5002 79.6001 13.1002 81.4001 14.8002L78.9001 17.4002C78.0001 16.6002 76.8001 16.2002 75.7001 16.2002C73.0001 16.3002 71.0001 18.2002 71.0001 21.0002C71.0001 24.0002 73.1001 25.6002 75.5001 25.6002C76.8001 25.6002 78.0001 25.2002 79.0001 24.3002L81.7001 26.8002Z" fill="#00AFD1"/>
<path d="M87.4001 6.40015V15.2001C88.8001 13.4001 90.6001 12.8001 92.4001 12.8001C96.9001 12.8001 98.9001 15.8001 98.9001 20.5001V28.8001H95.0001V20.5001C95.0001 17.6001 93.5001 16.4001 91.4001 16.4001C89.1001 16.4001 87.5001 18.4001 87.5001 20.7001V28.8001H83.6001V6.40015H87.4001Z" fill="#00AFD1"/>
<path d="M118.1 21C118.1 25.5 115 29.2001 109.8 29.2001C104.6 29.2001 101.5 25.5 101.5 21C101.5 16.5 104.7 12.8 109.8 12.8C114.9 12.8 118.1 16.5 118.1 21ZM105.5 21C105.5 23.4 107 25.6 109.8 25.6C112.7 25.6 114.1 23.4 114.1 21C114.1 18.6 112.4 16.3 109.8 16.3C107 16.3 105.5 18.6 105.5 21Z" fill="#00AFD1"/>
<path d="M0.800049 3.19995L6.10005 0.199951L11.3 3.19995L5.90005 6.19995L0.800049 3.19995Z" fill="#828282"/>
<path d="M7.19995 6.90005L12.5 3.80005L17.8 6.90005L12.4 9.80005L7.19995 6.90005Z" fill="#828282"/>
<path d="M20.7 6.79995L26 3.69995L31.2 6.79995L25.7999 9.79995L20.7 6.79995Z" fill="#C6C6C6"/>
<path d="M27.3 3.1L32.6 0L37.8 3.1L32.4001 6L27.3 3.1Z" fill="#C6C6C6"/>
<path d="M0 4.19995V10.8L5.3 13.8V7.29995L0 4.19995Z" fill="#00AFD1"/>
<path d="M6.6001 7.8999V14.4999L12.0001 17.3999V10.9999L6.6001 7.8999Z" fill="#00AFD1"/>
<path d="M13.1001 11.3999V17.9999L18.4001 20.8999V14.4999L13.1001 11.3999Z" fill="#00AFD1"/>
<path d="M38.2999 4.30005V10.9L32.8999 13.9V7.40005L38.2999 4.30005Z" fill="#4AE1FF"/>
<path d="M31.6 8V14.6L26.3 17.5V11.1L31.6 8Z" fill="#4AE1FF"/>
<path d="M25.1 11.5V18.1L19.8 21V14.6L25.1 11.5Z" fill="#4AE1FF"/>
<path d="M0 12.1001V18.7001L5.3 21.6001V15.2001L0 12.1001Z" fill="#00AFD1"/>
<path d="M6.6001 15.7V22.3L12.0001 25.3V18.9L6.6001 15.7Z" fill="#00AFD1"/>
<path d="M13.1001 19.2V25.7999L18.4001 28.7V22.2999L13.1001 19.2Z" fill="#00AFD1"/>
<path d="M38.2999 12.2V18.8L32.8999 21.7V15.3L38.2999 12.2Z" fill="#4AE1FF"/>
<path d="M31.6 15.8999V22.4999L26.3 25.3999V18.9999L31.6 15.8999Z" fill="#4AE1FF"/>
<path d="M25.1 19.3V25.9L19.8 28.8V22.4L25.1 19.3Z" fill="#4AE1FF"/>
<path d="M0 19.8999V26.4999L5.3 29.4999V22.9999L0 19.8999Z" fill="#00AFD1"/>
<path d="M6.6001 23.6001V30.2001L12.0001 33.1001V26.7001L6.6001 23.6001Z" fill="#00AFD1"/>
<path d="M13.1001 27.1001V33.7001L18.4001 36.6001V30.2001L13.1001 27.1001Z" fill="#00AFD1"/>
<path d="M38.2999 20V26.6L32.8999 29.6V23.2L38.2999 20Z" fill="#4AE1FF"/>
<path d="M31.6 23.7V30.2999L26.3 33.2V26.7999L31.6 23.7Z" fill="#4AE1FF"/>
<path d="M25.1 27.2V33.7999L19.8 36.7V30.2999L25.1 27.2Z" fill="#4AE1FF"/>
<path d="M19.1999 7.3999L13.8999 10.4999L19.0999 13.3999L19.1999 7.3999Z" fill="#828282"/>
<path d="M19.1999 7.3999L19.0999 13.3999L24.3999 10.4999L19.1999 7.3999Z" fill="#C6C6C6"/>
</g>
<defs>
<clipPath id="clip0_6_57">
<rect width="118.1" height="36.7" fill="white"/>
</clipPath>
</defs>
</svg>
