<svg width="1463" height="424" viewBox="0 0 1463 424" fill="none" xmlns="http://www.w3.org/2000/svg">
<g clip-path="url(#clip0_14_2)">
<path d="M9.52093 330.625V167.696H212.809V158.165H9.52093V9.52738H225.662V0H0V340.152H227.565V330.625H9.52379H9.52093ZM410.86 95.2795L326.595 206.283L244.23 95.2824H231.851L320.88 213.431L223.279 340.149H234.706L326.589 220.571L418.949 340.149H430.851L332.778 213.425L422.281 95.2767H410.857L410.86 95.2795ZM459.419 424V271.553H460.371C466.086 293.785 477.352 311.65 494.174 325.149C510.996 338.645 532.418 345.396 558.443 345.396C575.265 345.396 590.183 341.982 603.196 335.154C616.209 328.326 627.078 319.036 635.808 307.284C644.534 295.532 651.201 281.876 655.804 266.312C660.404 250.751 662.708 234.393 662.708 217.245C662.708 198.823 660.324 181.829 655.564 166.269C650.804 150.705 643.9 137.206 634.856 125.775C625.81 114.34 614.86 105.445 602.004 99.0968C589.152 92.7433 574.63 89.5665 558.443 89.5665C546.065 89.5665 534.561 91.3937 523.928 95.0451C513.296 98.6993 503.855 103.858 495.603 110.529C487.302 117.251 480.077 125.203 474.178 134.11C468.149 143.162 463.545 153.087 460.371 163.887H459.419V95.2795H449.898V424H459.419V424ZM558.443 336.341C528.612 336.341 504.646 326.098 486.556 305.614C468.466 285.13 459.419 255.67 459.419 217.24C459.419 201.359 461.642 186.273 466.086 171.982C470.529 157.691 476.955 145.144 485.365 134.347C493.777 123.547 504.172 114.972 516.548 108.621C528.926 102.268 542.893 99.0911 558.443 99.0911C574.313 99.0911 588.2 102.268 600.101 108.621C612.003 114.972 621.844 123.627 629.619 134.584C637.394 145.541 643.266 158.088 647.235 172.219C651.201 186.353 653.184 201.359 653.184 217.24C653.184 231.534 651.361 245.748 647.709 259.879C644.06 274.012 638.425 286.716 630.807 297.994C623.192 309.265 613.434 318.475 601.53 325.624C589.626 332.769 575.265 336.341 558.443 336.341V336.341ZM715.076 340.152V201.519C715.076 188.18 716.979 175.156 720.79 162.454C724.596 149.75 730.468 138.553 738.403 128.868C746.339 119.181 756.414 111.558 768.635 105.999C780.853 100.441 795.375 98.1389 812.196 99.0911V89.5637C797.595 89.2492 784.822 90.8332 773.873 94.3274C762.92 97.8215 753.479 102.585 745.544 108.621C737.609 114.655 731.263 121.72 726.502 129.821C721.746 137.908 718.215 146.658 716.027 155.784H715.076V95.2795H705.555V340.155H715.076V340.152ZM824.098 219.622H1028.81C1029.45 202.789 1027.78 186.593 1023.81 171.03C1019.85 155.466 1013.5 141.65 1004.77 129.583C996.043 117.514 984.776 107.826 970.969 100.521C957.162 93.2151 940.738 89.5637 921.696 89.5637C908.046 89.5637 894.716 92.4231 881.703 98.1418C868.691 103.858 857.264 112.193 847.426 123.15C837.588 134.107 829.652 147.526 823.623 163.409C817.594 179.287 814.577 197.39 814.577 217.717C814.577 235.82 816.64 252.733 820.766 268.454C824.892 284.174 831.238 297.834 839.808 309.425C848.38 321.017 859.41 329.99 872.897 336.341C886.384 342.694 902.651 345.711 921.696 345.393C949.624 345.393 973.112 337.53 992.154 321.812C1011.2 306.089 1022.47 283.937 1025.96 255.352H1016.44C1012.31 282.35 1001.75 302.597 984.776 316.094C967.795 329.593 946.452 336.341 920.741 336.341C903.285 336.341 888.527 333.324 876.466 327.291C864.407 321.258 854.566 312.997 846.948 302.517C839.333 292.035 833.699 279.728 830.05 265.594C826.398 251.463 824.415 236.137 824.098 219.622ZM1019.29 210.094H824.101C825.049 192.944 828.224 177.54 833.619 163.884C839.016 150.225 846.077 138.553 854.806 128.868C863.533 119.181 873.691 111.798 885.275 106.714C896.859 101.633 909.317 99.0911 922.647 99.0911C938.517 99.0911 952.479 102.03 964.543 107.906C976.601 113.782 986.679 121.803 994.774 131.965C1002.87 142.127 1008.98 153.959 1013.1 167.455C1017.23 180.955 1019.29 195.168 1019.29 210.094ZM1226.39 167.696H1235.91C1235.91 140.38 1227.97 120.531 1212.11 108.144C1196.23 95.7571 1174.65 89.5637 1147.36 89.5637C1132.12 89.5637 1119.27 91.4709 1108.79 95.2824C1098.32 99.0911 1089.75 104.015 1083.09 110.048C1076.42 116.081 1071.66 122.752 1068.8 130.058C1065.95 137.364 1064.52 144.352 1064.52 151.02C1064.52 164.359 1066.9 174.998 1071.66 182.939C1076.42 190.879 1083.88 197.073 1094.04 201.519C1101.02 204.693 1108.95 207.552 1117.84 210.097C1126.73 212.636 1137.04 215.335 1148.79 218.192C1159.26 220.737 1169.57 223.276 1179.73 225.815C1189.89 228.357 1198.85 231.771 1206.63 236.057C1214.41 240.346 1220.75 245.825 1225.67 252.496C1230.59 259.164 1233.05 267.899 1233.05 278.696C1233.05 289.178 1230.59 298.071 1225.67 305.374C1220.8 312.641 1214.37 318.742 1206.87 323.242C1199.25 327.845 1190.76 331.179 1181.4 333.244C1172.03 335.308 1162.91 336.341 1154.02 336.341C1125.14 336.341 1103 329.91 1087.61 317.049C1072.22 304.184 1064.52 283.937 1064.52 256.304H1055C1055 287.114 1063.33 309.663 1079.99 323.957C1096.66 338.248 1121.33 345.393 1154.02 345.393C1164.5 345.393 1175.05 344.201 1185.68 341.819C1196.31 339.437 1205.84 335.549 1214.25 330.147C1222.59 324.822 1229.59 317.652 1234.72 309.188C1239.96 300.61 1242.58 290.131 1242.58 277.744C1242.58 265.992 1240.27 256.464 1235.67 249.159C1231.07 241.856 1225.04 235.82 1217.58 231.056C1210.12 226.292 1201.71 222.561 1192.35 219.862C1182.93 217.147 1173.49 214.525 1164.02 211.999C1152.37 208.939 1140.7 205.923 1129.03 202.949C1119.03 200.407 1109.75 197.39 1101.18 193.896C1092.93 190.402 1086.34 185.401 1081.42 178.89C1076.5 172.379 1074.04 163.089 1074.04 151.02C1074.04 148.798 1074.68 144.827 1075.95 139.111C1077.21 133.392 1080.23 127.596 1084.99 121.72C1089.75 115.847 1097.05 110.606 1106.89 105.999C1116.73 101.396 1130.22 99.0911 1147.36 99.0911C1159.1 99.0911 1169.81 100.363 1179.49 102.903C1189.17 105.445 1197.51 109.493 1204.49 115.052C1211.47 120.611 1216.86 127.676 1220.67 136.251C1224.48 144.829 1226.39 155.309 1226.39 167.696V167.696ZM1446.81 167.696H1456.33C1456.33 140.38 1448.4 120.531 1432.53 108.144C1416.66 95.7571 1395.08 89.5637 1367.78 89.5637C1352.55 89.5637 1339.69 91.4709 1329.22 95.2824C1318.75 99.0911 1310.18 104.015 1303.51 110.048C1296.85 116.081 1292.09 122.752 1289.23 130.058C1286.37 137.364 1284.95 144.352 1284.95 151.02C1284.95 164.359 1287.33 174.998 1292.09 182.939C1296.85 190.879 1304.31 197.073 1314.46 201.519C1321.45 204.693 1329.38 207.552 1338.26 210.097C1347.15 212.636 1357.47 215.335 1369.21 218.192C1379.69 220.737 1390 223.276 1400.16 225.815C1410.31 228.357 1419.28 231.771 1427.06 236.057C1434.83 240.346 1441.18 245.825 1446.1 252.496C1451.02 259.164 1453.48 267.899 1453.48 278.696C1453.48 289.178 1451.02 298.071 1446.1 305.374C1441.22 312.641 1434.8 318.742 1427.3 323.242C1419.68 327.845 1411.19 331.179 1401.82 333.244C1392.46 335.308 1383.34 336.341 1374.45 336.341C1345.57 336.341 1323.43 329.91 1308.04 317.049C1292.64 304.184 1284.95 283.937 1284.95 256.304H1275.42C1275.42 287.114 1283.75 309.663 1300.42 323.957C1317.08 338.248 1341.76 345.393 1374.45 345.393C1384.92 345.393 1395.48 344.201 1406.11 341.819C1416.74 339.437 1426.26 335.549 1434.67 330.147C1443.01 324.822 1450.02 317.652 1455.14 309.188C1460.38 300.61 1463 290.131 1463 277.744C1463 265.992 1460.7 256.464 1456.1 249.159C1451.5 241.856 1445.47 235.82 1438.01 231.056C1430.55 226.292 1422.14 222.561 1412.78 219.862C1403.36 217.147 1393.92 214.525 1384.45 211.999C1372.79 208.939 1361.13 205.923 1349.45 202.949C1339.46 200.407 1330.17 197.39 1321.6 193.896C1313.35 190.402 1306.76 185.401 1301.85 178.89C1296.93 172.379 1294.47 163.089 1294.47 151.02C1294.47 148.798 1295.1 144.827 1296.37 139.111C1297.64 133.392 1300.66 127.596 1305.42 121.72C1310.18 115.847 1317.48 110.606 1327.32 105.999C1337.16 101.396 1350.64 99.0911 1367.79 99.0911C1379.53 99.0911 1390.24 100.363 1399.92 102.903C1409.6 105.445 1417.93 109.493 1424.91 115.052C1431.9 120.611 1437.29 127.676 1441.1 136.251C1444.91 144.829 1446.82 155.309 1446.82 167.696H1446.81Z" fill="#FFB3B3"/>
</g>
<defs>
<clipPath id="clip0_14_2">
<rect width="1463" height="424" fill="white"/>
</clipPath>
</defs>
</svg>
