<svg width="469" height="132" viewBox="0 0 469 132" fill="none" xmlns="http://www.w3.org/2000/svg">
<g clip-path="url(#clip0_6_20)">
<path opacity="0.54" d="M140.773 100.518H132V32.7654H171.844V41.0894H140.774V63.3334H168.799V71.4652H140.774V100.518L140.773 100.518ZM188.34 42.5161C186.249 44.6011 182.965 44.9286 180.497 43.2984C178.03 41.6682 177.067 38.5344 178.197 35.8147C179.328 33.095 182.237 31.5469 185.145 32.1179C188.052 32.6889 190.148 35.2199 190.15 38.1619C190.179 39.8005 189.521 41.3773 188.333 42.5161H188.341H188.34ZM188.34 100.518H179.567V54.152H188.34V100.518V100.518ZM207.592 100.518H198.819V54.152H207.205V61.722H207.585C208.598 59.0544 210.543 56.8373 213.066 55.4753C215.476 53.9401 218.262 53.0887 221.124 53.0136C223.371 52.9502 225.608 53.3374 227.701 54.152L224.364 62.2837C222.859 61.7867 221.278 61.5614 219.695 61.6184C216.478 61.6346 213.416 62.992 211.257 65.359C208.809 67.8527 207.585 71.1178 207.585 75.154L207.592 100.518L207.592 100.518ZM251.741 101.996C244.686 101.996 238.951 99.6625 234.538 94.9961C230.124 90.3297 227.914 84.4421 227.909 77.3354C227.78 70.9368 230.076 64.7234 234.344 59.9261C238.431 55.1511 244.478 52.4711 250.788 52.6361C257.714 52.6361 263.26 54.8761 267.426 59.3559C271.591 63.8357 273.672 69.8286 273.666 77.3345L273.569 78.9461H236.666C236.92 83.6131 238.493 87.3095 241.388 90.0348C244.095 92.6722 247.746 94.1348 251.538 94.1008C257.829 94.1008 262.086 91.4508 264.311 86.1538L272.131 89.3695C270.546 93.0355 267.932 96.1715 264.601 98.4031C261.101 100.798 256.814 101.996 251.739 101.996L251.741 101.996ZM264.328 71.6869C264.139 69.0355 262.915 66.5122 260.656 64.1169C258.397 61.7216 255.038 60.5489 250.579 60.5981C247.487 60.5443 244.483 61.6234 242.142 63.6291C239.688 65.7629 237.972 68.6071 237.233 71.7608L264.328 71.6868L264.328 71.6869ZM305.363 101.996C302.044 102.061 298.761 101.299 295.816 99.7784C293.229 98.4834 291.04 96.5226 289.478 94.101H289.098V100.518H280.705V32.7654H289.478V54.152L289.098 60.5835H289.478C291.04 58.1618 293.229 56.201 295.816 54.9061C298.757 53.3679 302.04 52.5875 305.363 52.6366C311.401 52.6366 316.614 55.0022 321.003 59.7334C325.392 64.4646 327.584 70.3318 327.579 77.3349C327.575 84.338 325.387 90.2052 321.003 94.9364C316.619 99.6676 311.406 102.021 305.363 101.996L305.363 101.996ZM303.933 94.0491C307.93 94.0806 311.748 92.4091 314.419 89.4584C317.344 86.3979 318.806 82.3444 318.806 77.2977C318.806 72.251 317.344 68.1977 314.419 65.137C311.717 62.2216 307.912 60.559 303.921 60.5505C299.93 60.542 296.117 62.1887 293.402 65.0925C290.513 68.1185 289.068 72.1868 289.068 77.2975C289.068 82.4082 290.528 86.4888 293.447 89.5395C296.135 92.4792 299.964 94.1343 303.963 94.0859L303.933 94.0489L303.933 94.0491ZM349.914 101.996C344.949 101.996 340.804 100.577 337.477 97.7381C334.151 94.8995 332.482 91.1465 332.472 86.4793C332.472 81.4327 334.443 77.4753 338.386 74.6069C342.328 71.7385 347.189 70.3045 352.968 70.3045C358.117 70.3045 362.338 71.2507 365.629 73.1432V71.82C365.754 68.7035 364.457 65.697 362.099 63.6365C359.697 61.5831 356.606 60.4989 353.437 60.5982C351.012 60.5682 348.624 61.188 346.526 62.3946C344.56 63.4754 343.053 65.2234 342.281 67.318L334.275 63.91C335.357 61.1255 337.487 58.543 340.675 56.1627C343.862 53.7824 348.048 52.5995 353.261 52.6143C359.219 52.6143 364.184 54.3393 368.156 57.789C372.128 61.2387 374.099 66.1277 374.069 72.4557V100.518H365.654V94.0862H365.274C361.774 99.3595 356.657 101.986 349.925 101.986L349.914 101.996ZM351.344 94.0491C355.031 94.0363 358.57 92.6085 361.22 90.0645C364.044 87.7012 365.678 84.2245 365.688 80.5577C363.206 78.5371 359.482 77.5267 354.517 77.5267C350.257 77.5267 347.047 78.4409 344.887 80.2693C342.872 81.8073 341.678 84.1775 341.648 86.7008C341.607 88.8966 342.74 90.9508 344.628 92.0973C346.612 93.4213 348.955 94.1149 351.345 94.0859V94.0489L351.344 94.0491ZM399.865 101.996C394.652 101.996 390.347 100.734 386.951 98.2111C383.647 95.7888 381.072 92.5171 379.504 88.7487L387.323 85.533C389.806 91.3386 394.026 94.2414 399.984 94.2414C402.351 94.3376 404.691 93.7106 406.687 92.445C408.333 91.4305 409.327 89.637 409.309 87.7138C409.309 84.6878 407.179 82.6376 402.909 81.5632L393.473 79.2937C390.368 78.4783 387.475 77.0111 384.99 74.9913C382.345 72.9437 380.854 69.7579 380.983 66.4308C380.983 62.3308 382.81 59.0038 386.465 56.4508C390.287 53.8463 394.84 52.5061 399.475 52.6215C403.345 52.5601 407.161 53.5275 410.527 55.4233C413.705 57.2143 416.163 60.0397 417.483 63.422L409.865 66.512C408.152 62.412 404.592 60.3614 399.185 60.3614C396.885 60.2854 394.609 60.8434 392.609 61.973C390.97 62.8157 389.942 64.4952 389.942 66.3272C389.942 68.9786 392.008 70.7775 396.139 71.7237L405.381 73.9045C409.765 74.8902 413.007 76.6151 415.108 79.0792C417.142 81.3812 418.259 84.3412 418.25 87.4032C418.291 91.4856 416.382 95.3462 413.104 97.8118C409.673 100.601 405.257 101.996 399.855 101.996L399.865 101.996ZM447.052 101.996C439.997 101.996 434.262 99.6625 429.849 94.9961C425.435 90.3297 423.225 84.429 423.22 77.2978C423.09 70.8992 425.387 64.6858 429.655 59.8885C433.757 55.1255 439.81 52.4598 446.121 52.6365C453.071 52.6365 458.618 54.8765 462.759 59.3563C466.9 63.8361 468.98 69.829 469 77.3348L468.903 78.9464H431.97C432.223 83.6134 433.797 87.3098 436.692 90.0351C439.407 92.6725 443.067 94.1301 446.865 94.0861C453.156 94.0861 457.413 91.4361 459.638 86.1391L467.457 89.3548C465.873 93.021 463.26 96.157 459.928 98.3884C456.428 100.793 452.135 101.996 447.051 101.996L447.052 101.996ZM459.639 71.6869C459.45 69.0355 458.226 66.5122 455.967 64.1169C453.708 61.7216 450.354 60.5489 445.905 60.5981C442.813 60.5451 439.809 61.6241 437.467 63.6291C435.014 65.7629 433.298 68.6071 432.56 71.7608L459.639 71.6868V71.6869Z" fill="#FFCB2E"/>
<path d="M0.833313 105.719L16.9655 2.49061C17.1627 1.22461 18.1473 0.226614 19.4105 0.012014C20.6737 -0.202586 21.9325 0.414814 22.5365 1.54471L39.22 32.662L45.87 20.0005C46.385 19.0215 47.4003 18.4085 48.5066 18.4085C49.6129 18.4085 50.6281 19.0215 51.1432 20.0005L96.1659 105.719H0.833313V105.719Z" fill="#FFA000"/>
<path d="M56.566 65.5074L39.2124 32.6472L0.833405 105.719L56.566 65.5074Z" fill="#F57C00"/>
<path d="M96.1666 105.719L83.8106 29.2584C83.6239 28.1604 82.8403 27.2584 81.7791 26.9184C80.7179 26.5784 79.5565 26.8614 78.7684 27.6486L0.833405 105.718L43.9568 129.901C46.6648 131.413 49.9628 131.413 52.6708 129.901L96.1666 105.718V105.719Z" fill="#FFCA28"/>
<path d="M83.8105 29.2584C83.6238 28.1604 82.8402 27.2584 81.779 26.9184C80.7178 26.5784 79.5564 26.8614 78.7683 27.6486L63.3 43.1562L51.1365 20C50.6215 19.021 49.6062 18.408 48.4999 18.408C47.3936 18.408 46.3784 19.021 45.8633 20L39.2133 32.6615L22.529 1.5447C21.924 0.414497 20.6637 -0.201904 19.399 0.0142964C18.1343 0.230496 17.153 1.231 16.958 2.498L0.833311 105.719H0.781311L0.833311 105.778L1.25781 105.987L78.7458 28.4093C79.5335 27.6178 80.6978 27.3333 81.7618 27.6723C82.8258 28.0113 83.6108 28.9168 83.7956 30.018L96.0474 105.793L96.1666 105.718L83.8106 29.2582L83.8105 29.2584ZM0.974812 105.577L16.9655 3.228C17.1603 1.961 18.1439 0.960496 19.4075 0.744296C20.6711 0.528096 21.9315 1.1443 22.5375 2.2747L39.22 33.392L45.87 20.7305C46.385 19.7515 47.4003 19.1385 48.5066 19.1385C49.6129 19.1385 50.6281 19.7515 51.1432 20.7305L63.0599 43.3945L0.974112 105.577H0.974812Z" fill="white" fill-opacity="0.2"/>
<path opacity="0.2" d="M52.6708 129.172C49.9628 130.684 46.6648 130.684 43.9568 129.172L0.937613 105.056L0.833313 105.719L43.9567 129.895C46.6647 131.407 49.9627 131.407 52.6707 129.895L96.1665 105.719L96.0548 105.034L52.6708 129.173V129.172Z" fill="#A52714"/>
<path d="M83.687 29.2742C83.501 28.1765 82.72 27.2742 81.6626 26.9362C80.6052 26.5982 79.4478 26.8792 78.6624 27.6662L63.2473 43.166L51.1273 20.0205C50.614 19.0419 49.6023 18.4291 48.5 18.4291C47.3977 18.4291 46.386 19.0419 45.8727 20.0205L39.245 32.6765L22.62 1.5726C22.017 0.442902 20.7612 -0.173398 19.502 0.0429018C18.2428 0.259202 17.2626 1.2589 17.0685 2.5256L1 105.701L43.9727 129.866C46.6712 131.378 49.9577 131.378 52.6563 129.866L96 105.701L83.687 29.274V29.2742Z" fill="url(#paint0_linear_6_20)"/>
</g>
<defs>
<linearGradient id="paint0_linear_6_20" x1="-2.3155" y1="22.2962" x2="116.236" y2="84.8307" gradientUnits="userSpaceOnUse">
<stop stop-color="white" stop-opacity="0.1"/>
<stop offset="0.14" stop-color="white" stop-opacity="0.08"/>
<stop offset="0.61" stop-color="white" stop-opacity="0.02"/>
<stop offset="1" stop-color="white" stop-opacity="0"/>
</linearGradient>
<clipPath id="clip0_6_20">
<rect width="469" height="132" fill="white"/>
</clipPath>
</defs>
</svg>
