<svg width="276" height="96" viewBox="0 0 276 96" fill="none" xmlns="http://www.w3.org/2000/svg">
<path d="M64.2727 38.5625C63.9148 37.3182 63.4119 36.2187 62.7642 35.2642C62.1165 34.2926 61.3239 33.4744 60.3864 32.8097C59.4659 32.1278 58.4091 31.608 57.2159 31.25C56.0398 30.892 54.7358 30.7131 53.304 30.7131C50.6278 30.7131 48.2756 31.3778 46.2472 32.7074C44.2358 34.0369 42.6676 35.9716 41.5426 38.5114C40.4176 41.0341 39.8551 44.1193 39.8551 47.767C39.8551 51.4148 40.4091 54.517 41.517 57.0739C42.625 59.6307 44.1932 61.5824 46.2216 62.929C48.25 64.2585 50.6449 64.9233 53.4062 64.9233C55.9119 64.9233 58.0511 64.4801 59.8239 63.5938C61.6136 62.6903 62.9773 61.4205 63.9148 59.7841C64.8693 58.1477 65.3466 56.2131 65.3466 53.9801L67.5966 54.3125H54.0966V45.9773H76.0085V52.5739C76.0085 57.1761 75.0369 61.1307 73.0938 64.4375C71.1506 67.7273 68.4744 70.267 65.0653 72.0568C61.6562 73.8295 57.7528 74.7159 53.3551 74.7159C48.446 74.7159 44.1335 73.6335 40.4176 71.4688C36.7017 69.2869 33.804 66.1932 31.7244 62.1875C29.6619 58.1648 28.6307 53.392 28.6307 47.8693C28.6307 43.625 29.2443 39.8409 30.4716 36.517C31.7159 33.1761 33.4545 30.3466 35.6875 28.0284C37.9205 25.7102 40.5199 23.946 43.4858 22.7358C46.4517 21.5256 49.6648 20.9205 53.125 20.9205C56.0909 20.9205 58.8523 21.3551 61.4091 22.2244C63.9659 23.0767 66.233 24.2869 68.2102 25.8551C70.2045 27.4233 71.8324 29.2898 73.0938 31.4545C74.3551 33.6023 75.1648 35.9716 75.5227 38.5625H64.2727ZM132.444 47.8182C132.444 53.5284 131.362 58.3864 129.197 62.392C127.049 66.3977 124.117 69.4574 120.401 71.571C116.702 73.6676 112.543 74.7159 107.924 74.7159C103.271 74.7159 99.0945 73.6591 95.3956 71.5455C91.6967 69.4318 88.7734 66.3722 86.6257 62.3665C84.478 58.3608 83.4041 53.5114 83.4041 47.8182C83.4041 42.108 84.478 37.25 86.6257 33.2443C88.7734 29.2386 91.6967 26.1875 95.3956 24.0909C99.0945 21.9773 103.271 20.9205 107.924 20.9205C112.543 20.9205 116.702 21.9773 120.401 24.0909C124.117 26.1875 127.049 29.2386 129.197 33.2443C131.362 37.25 132.444 42.108 132.444 47.8182ZM121.219 47.8182C121.219 44.1193 120.665 41 119.558 38.4602C118.467 35.9205 116.924 33.9943 114.93 32.6818C112.935 31.3693 110.6 30.7131 107.924 30.7131C105.248 30.7131 102.913 31.3693 100.918 32.6818C98.924 33.9943 97.3729 35.9205 96.2649 38.4602C95.174 41 94.6286 44.1193 94.6286 47.8182C94.6286 51.517 95.174 54.6364 96.2649 57.1761C97.3729 59.7159 98.924 61.642 100.918 62.9545C102.913 64.267 105.248 64.9233 107.924 64.9233C110.6 64.9233 112.935 64.267 114.93 62.9545C116.924 61.642 118.467 59.7159 119.558 57.1761C120.665 54.6364 121.219 51.517 121.219 47.8182ZM140.645 74V21.6364H161.304C165.259 21.6364 168.634 22.3437 171.429 23.7585C174.241 25.1562 176.381 27.142 177.847 29.7159C179.33 32.2727 180.071 35.2812 180.071 38.7415C180.071 42.2187 179.321 45.2102 177.821 47.7159C176.321 50.2045 174.148 52.1136 171.301 53.4432C168.472 54.7727 165.045 55.4375 161.023 55.4375H147.19V46.5398H159.233C161.347 46.5398 163.102 46.25 164.5 45.6705C165.898 45.0909 166.938 44.2216 167.619 43.0625C168.318 41.9034 168.668 40.4631 168.668 38.7415C168.668 37.0028 168.318 35.5369 167.619 34.3438C166.938 33.1506 165.889 32.2472 164.474 31.6335C163.077 31.0028 161.313 30.6875 159.182 30.6875H151.716V74H140.645ZM168.923 50.1705L181.938 74H169.716L156.983 50.1705H168.923ZM187.895 21.6364H201.548L215.969 56.8182H216.582L231.003 21.6364H244.656V74H233.918V39.9176H233.483L219.932 73.7443H212.619L199.068 39.7898H198.634V74H187.895V21.6364Z" fill="#4307C4"/>
</svg>
