<?xml version="1.0" standalone="no"?>
<!DOCTYPE svg PUBLIC "-//W3C//DTD SVG 20010904//EN"
 "http://www.w3.org/TR/2001/REC-SVG-20010904/DTD/svg10.dtd">
<svg version="1.0" xmlns="http://www.w3.org/2000/svg"
 width="200.000000pt" height="200.000000pt" viewBox="0 0 200.000000 200.000000"
 preserveAspectRatio="xMidYMid meet">

<g transform="translate(0.000000,200.000000) scale(0.100000,-0.100000)"
fill="#000000" stroke="none">
<path d="M0 1000 l0 -1000 1000 0 1000 0 0 1000 0 1000 -1000 0 -1000 0 0
-1000z m456 219 l44 -11 0 -54 c0 -47 -3 -54 -19 -54 -13 0 -23 11 -31 34 -11
35 -31 46 -82 46 -69 0 -118 -64 -118 -154 0 -93 47 -146 128 -146 55 0 74 17
70 65 -2 33 -7 41 -25 43 -13 2 -23 10 -23 18 0 11 17 14 75 14 57 0 75 -3 75
-14 0 -7 -9 -16 -20 -19 -17 -4 -20 -14 -20 -66 0 -58 -2 -62 -27 -73 -16 -7
-67 -12 -115 -12 -96 -1 -129 14 -158 70 -23 45 -20 188 5 239 36 72 131 101
241 74z m410 -8 c65 -29 89 -78 89 -177 0 -72 -3 -85 -28 -123 -38 -57 -99
-85 -174 -79 -57 5 -92 25 -127 71 -17 23 -20 42 -20 115 0 93 12 128 56 169
49 46 134 56 204 24z m390 -4 c63 -33 70 -125 13 -177 -24 -22 -27 -29 -16
-38 7 -6 24 -34 37 -62 13 -27 32 -52 42 -56 10 -3 18 -14 18 -25 0 -17 -6
-20 -42 -17 -42 3 -43 4 -78 76 -37 77 -51 92 -87 92 -21 0 -23 -4 -23 -59 0
-54 2 -59 25 -65 16 -4 25 -13 25 -26 0 -18 -7 -20 -80 -20 -74 0 -80 2 -80
20 0 11 8 24 18 27 29 11 32 24 32 153 0 129 -3 142 -32 153 -30 11 -21 35 15
40 64 9 182 1 213 -16z m287 -79 c25 -57 50 -104 55 -106 5 -1 31 42 57 98 38
79 53 100 69 100 12 0 38 3 59 6 33 6 37 5 37 -16 0 -13 -8 -24 -20 -27 -19
-5 -20 -14 -20 -153 0 -139 1 -148 20 -153 12 -3 20 -14 20 -26 0 -19 -6 -21
-75 -21 -66 0 -75 2 -75 18 0 11 11 24 25 30 24 11 25 14 25 116 0 58 -3 107
-8 110 -4 2 -27 -34 -52 -80 -38 -75 -47 -85 -68 -82 -20 2 -34 20 -66 80 -23
43 -44 78 -48 78 -5 0 -8 -49 -8 -109 0 -108 0 -109 25 -115 16 -4 25 -13 25
-26 0 -18 -7 -20 -70 -20 -60 0 -70 2 -70 18 0 10 9 25 20 35 18 15 20 29 20
147 0 118 -2 132 -20 147 -39 34 -23 46 71 51 23 2 30 -7 72 -100z"/>
<path d="M733 1170 c-13 -5 -32 -24 -43 -42 -18 -28 -20 -46 -18 -111 3 -75 5
-80 36 -108 36 -33 77 -37 121 -14 81 41 81 232 1 272 -29 15 -65 16 -97 3z"/>
<path d="M1120 1109 l0 -72 42 7 c23 4 50 14 60 23 18 16 24 59 10 79 -12 19
-49 34 -81 34 l-31 0 0 -71z"/>
</g>
</svg>
