<svg width="124" height="99" viewBox="0 0 124 99" fill="none" xmlns="http://www.w3.org/2000/svg">
<g clip-path="url(#clip0_6_56)">
<path d="M86.4108 72.0686C87.0412 66.8209 86.8517 66.0552 90.7576 66.9021L91.7514 66.991C94.7562 67.1264 98.6853 66.5076 101.033 65.4364C106.002 63.1316 108.949 59.2799 104.049 60.2931C92.8729 62.5979 92.0608 58.8119 92.0608 58.8119C103.867 41.2936 108.806 19.0572 104.54 13.6161C92.9232 -1.2339 72.8099 5.78891 72.4735 5.97454L72.3652 5.99387C70.1609 5.52981 67.7246 5.25911 64.9015 5.22044C59.8433 5.14309 56.007 6.54688 53.0912 8.75505C53.0912 8.75505 17.2153 -6.02534 18.882 27.3446C19.2378 34.4448 29.0527 81.0985 40.7703 66.9833C45.059 61.8245 49.1969 57.4661 49.1969 57.4661C51.2465 58.8313 53.7099 59.5274 56.2893 59.276L56.4904 59.1058C56.4309 59.7743 56.4582 60.4476 56.5716 61.109C53.5552 64.4812 54.4447 65.0729 48.4119 66.3143C42.3094 67.5711 45.8982 69.8102 48.234 70.398C51.0725 71.1096 57.639 72.115 62.0785 65.9043L61.9006 66.612C63.084 67.5595 63.0028 73.4183 63.1768 77.6026C63.3508 81.7869 63.6254 85.6966 64.48 87.9976C65.3347 90.2986 66.3363 96.2347 74.264 94.5718C80.8885 93.1525 85.9545 91.1068 86.4186 72.1034" fill="black"/>
<path d="M86.4108 72.0686C87.0412 66.8209 86.8517 66.0552 90.7576 66.9021L91.7514 66.991C94.7562 67.1264 98.6853 66.5076 101.033 65.4364C106.002 63.1316 108.949 59.2799 104.049 60.2931C92.8729 62.5979 92.0608 58.8119 92.0608 58.8119C103.867 41.2936 108.806 19.0572 104.54 13.6161C92.9232 -1.2339 72.8099 5.78891 72.4735 5.97454L72.3652 5.99387C70.1609 5.52981 67.7246 5.25911 64.9015 5.22044C59.8433 5.14309 56.007 6.54688 53.0912 8.75505C53.0912 8.75505 17.2153 -6.02534 18.882 27.3446C19.2378 34.4448 29.0527 81.0985 40.7703 66.9833C45.059 61.8245 49.1969 57.4661 49.1969 57.4661C51.2465 58.8313 53.7099 59.5274 56.2893 59.276L56.4904 59.1058C56.4309 59.7743 56.4582 60.4476 56.5716 61.109C53.5552 64.4812 54.4447 65.0729 48.4119 66.3143C42.3094 67.5711 45.8982 69.8102 48.234 70.398C51.0725 71.1096 57.639 72.115 62.0785 65.9043L61.9006 66.612C63.084 67.5595 63.0028 73.4183 63.1768 77.6026C63.3508 81.7869 63.6254 85.6966 64.48 87.9976C65.3347 90.2986 66.3363 96.2347 74.264 94.5718C80.8885 93.1525 85.9545 91.1068 86.4186 72.1034" stroke="black" stroke-width="8.31059"/>
<path d="M104.014 60.328C92.8378 62.6328 92.0257 58.8468 92.0257 58.8468C103.832 41.3285 108.771 19.0921 104.509 13.651C92.892 -1.199 72.7787 5.82768 72.4423 6.00944L72.334 6.02877C69.8774 5.53584 67.3797 5.27559 64.8742 5.25147C59.8159 5.17412 55.9797 6.57791 53.0638 8.78608C53.0638 8.78608 17.1841 -5.99431 18.8547 27.3756C19.2105 34.4758 29.0254 81.1296 40.743 67.0143C45.0587 61.8246 49.1966 57.4662 49.1966 57.4662C51.2462 58.8313 53.7096 59.5274 56.2891 59.2761L56.4901 59.1059C56.4311 59.7744 56.4584 60.4476 56.5714 61.1091C53.5549 64.4813 54.4444 65.073 48.4116 66.3144C42.3092 67.5712 45.8979 69.8103 48.2337 70.3981C51.0722 71.1097 57.6387 72.1151 62.0782 65.9044L61.9003 66.6121C63.0837 67.5596 63.9113 72.7726 63.7721 77.4983C63.6328 82.224 63.54 85.4647 64.4682 88.0015C65.3963 90.5384 66.3244 96.2387 74.2521 94.5758C80.8766 93.1565 84.3068 89.4711 84.7902 83.3377C85.1305 78.9755 85.8962 79.6175 85.9504 75.7194L86.5691 73.8708C87.2768 67.954 86.6851 66.0475 90.765 66.937L91.7589 67.0259C94.7637 67.1613 98.6966 66.5425 101.001 65.4713C105.971 63.1665 108.918 59.3147 104.018 60.328H104.014Z" fill="#336791"/>
<path d="M62.554 63.6808C62.2446 74.6869 62.6313 85.7702 63.7064 88.4309C64.7815 91.0915 67.0902 96.3586 75.0218 94.6648C81.6463 93.2455 84.0594 90.4959 85.1035 84.4283L87.5515 65.0266M53.0484 8.50769C53.0484 8.50769 17.1454 -6.17216 18.8161 27.1978C19.1718 34.298 28.9868 80.9517 40.7044 66.8365C44.9815 61.6815 48.8486 57.648 48.8486 57.648M72.4385 5.82772C71.201 6.21444 92.4087 -1.92599 104.467 13.477C108.72 18.9182 103.79 41.1545 91.9833 58.6728" stroke="white" stroke-width="2.76891" stroke-linecap="round" stroke-linejoin="round"/>
<path d="M91.9871 58.665C91.9871 58.665 92.7606 62.4549 103.975 60.1423C108.875 59.1291 105.924 62.9808 100.959 65.2856C96.883 67.1806 87.741 67.664 87.5901 65.0536C87.2034 58.3054 92.4009 60.355 92.0258 58.665C91.6855 57.1414 89.3575 55.6486 87.826 51.9206C86.4841 48.6722 69.4182 23.7289 92.5595 27.4297C93.4103 27.2557 86.5267 5.38678 64.8704 5.06967C43.2142 4.75256 43.8987 31.6953 43.8987 31.6953" stroke="white" stroke-width="2.76891" stroke-linecap="round" stroke-linejoin="bevel"/>
<path d="M56.4944 60.9777C53.478 64.3499 54.3675 64.9416 48.3347 66.183C42.2323 67.4398 45.821 69.6789 48.1568 70.2667C50.9953 70.9783 57.5618 71.9837 62.0013 65.7692C63.3548 63.8742 61.9936 60.8578 60.1373 60.0921C59.2401 59.7209 58.0413 59.2568 56.5022 60.9816L56.4944 60.9777Z" stroke="white" stroke-width="2.76891" stroke-linejoin="round"/>
<path d="M56.2972 60.9197C55.9878 58.9359 56.9469 56.5808 57.9717 53.8196C59.5108 49.6817 63.0609 45.5438 60.2224 32.407C58.107 22.623 43.9028 30.369 43.9028 31.6954C43.9028 33.0218 44.5448 38.4243 43.6708 44.7085C42.5223 52.9147 48.8915 59.8524 56.2237 59.1447" stroke="white" stroke-width="2.76891" stroke-linecap="round" stroke-linejoin="round"/>
<path d="M52.917 31.498C52.8512 31.9505 53.7484 33.1609 54.9124 33.3233C56.0765 33.4857 57.0703 32.5421 57.1361 32.0858C57.2018 31.6295 56.3046 31.1345 55.1406 30.9721C53.9766 30.8096 52.975 31.0494 52.917 31.498V31.498Z" fill="white" stroke="white" stroke-width="0.924258"/>
<path d="M88.3558 30.5739C88.4177 31.0264 87.5244 32.2368 86.3603 32.3992C85.1963 32.5617 84.1947 31.6181 84.1367 31.1617C84.0787 30.7054 84.9682 30.2104 86.1322 30.048C87.2962 29.8856 88.2978 30.1253 88.3558 30.5739Z" fill="white" stroke="white" stroke-width="0.460195"/>
<path d="M92.5169 27.4375C92.7102 30.9953 91.7512 33.4123 91.6274 37.1983C91.4495 42.6974 94.2494 48.9932 90.0303 55.2967" stroke="white" stroke-width="2.76891" stroke-linecap="round" stroke-linejoin="round"/>
</g>
<defs>
<clipPath id="clip0_6_56">
<rect width="99" height="99" fill="white" transform="translate(13)"/>
</clipPath>
</defs>
</svg>
